HIERARCHY
ROOT Hips
{
	OFFSET 0.000000 0.000000 0.000000
	CHANNELS 6 Xposition Yposition Zposition Zrotation Yrotation Xrotation 
	JOINT LHipJoint
	{
		OFFSET 0.000000 0.000000 0.000000
		CHANNELS 3 Zrotation Yrotation Xrotation
		JOINT LeftUpLeg
		{
			OFFSET 1.363060 -1.794630 0.839290
			CHANNELS 3 Zrotation Yrotation Xrotation
			JOINT LeftLeg
			{
				OFFSET 2.448110 -6.726130 0.000000
				CHANNELS 3 Zrotation Yrotation Xrotation
				JOINT LeftFoot
				{
					OFFSET 2.562200 -7.039590 0.000000
					CHANNELS 3 Zrotation Yrotation Xrotation
					JOINT LeftToeBase
					{
						OFFSET 0.157640 -0.433110 2.322550
						CHANNELS 3 Zrotation Yrotation Xrotation
						End Site
						{
							OFFSET 0.000000 0.000000 0.000000
						}
					}
				}
			}
		}
	}
	JOINT RHipJoint
	{
		OFFSET 0.000000 0.000000 0.000000
		CHANNELS 3 Zrotation Yrotation Xrotation
		JOINT RightUpLeg
		{
			OFFSET -1.305520 -1.794630 0.839290
			CHANNELS 3 Zrotation Yrotation Xrotation
			JOINT RightLeg
			{
				OFFSET -2.542530 -6.985550 0.000000
				CHANNELS 3 Zrotation Yrotation Xrotation
				JOINT RightFoot
				{
					OFFSET -2.568260 -7.056230 0.000000
					CHANNELS 3 Zrotation Yrotation Xrotation
					JOINT RightToeBase
					{
						OFFSET -0.164730 -0.452590 2.363150
						CHANNELS 3 Zrotation Yrotation Xrotation
						End Site
						{
							OFFSET 0.000000 0.000000 0.000000
						}
					}
				}
			}
		}
	}
}
MOTION
Frames: 30
Frame Time: 0.008333
16.169950 16.828008 1.411082 150.773579 -87.197470 -100.061314 -8.675752 -0.706760 3.105506 -8.688583 -8.704827 -56.183980 -2.497376 -1.660370 13.659028 3.656765 14.216649 -11.592117 0.047899 0.000000 -39.713700 8.168834 0.370212 4.875134 1.915385 9.993355 -58.837937 2.011912 0.967703 16.031990 -3.477246 -10.364888 -11.890446 -0.547800 0.000000 -56.666699
16.147597 16.740697 1.405019 148.585316 -87.167605 -96.760430 -8.536725 -0.665131 3.231419 -8.670968 -9.298406 -58.727797 -2.515317 -1.418933 16.295475 3.821711 14.195351 -12.900071 -0.281500 0.000001 -39.559300 8.200278 0.432238 5.030449 1.464296 10.244967 -61.611858 1.922383 0.628523 19.006529 -3.635913 -10.371767 -13.201394 -0.285701 0.000000 -55.891200
16.124037 16.641907 1.399100 145.958579 -87.140409 -93.006789 -8.402584 -0.608691 3.371152 -8.668529 -9.902067 -61.408226 -2.530606 -1.138786 19.131089 3.982472 14.124247 -14.260508 -0.626900 -0.000000 -39.390200 8.243904 0.507088 5.190273 0.995466 10.439132 -64.494086 1.826368 0.259776 22.162558 -3.792233 -10.358154 -14.591078 -0.001000 0.000000 -55.101300
16.099579 16.531398 1.393501 142.932198 -87.110972 -88.845572 -8.278388 -0.540701 3.525453 -8.666003 -10.522675 -64.208055 -2.535179 -0.819900 22.153882 4.140049 14.022426 -15.660073 -0.983100 -0.000000 -39.199499 8.297197 0.596252 5.352533 0.512186 10.574746 -67.461088 1.722797 -0.135793 25.478774 -3.944506 -10.331214 -16.042253 0.302300 0.000000 -54.326000
16.073962 16.408866 1.388430 139.551319 -87.074816 -84.326296 -8.167733 -0.465486 3.695580 -8.646236 -11.168515 -67.114770 -2.520579 -0.464487 25.350351 4.296154 13.911322 -17.085237 -1.346000 -0.000000 -38.986800 8.357958 0.700746 5.516632 0.016279 10.651330 -70.497122 1.610438 -0.555296 28.935127 -4.091110 -10.297135 -17.537248 0.619800 0.000000 -53.598200
16.047013 16.274382 1.384096 135.897820 -87.027940 -79.539033 -8.075092 -0.389587 3.879321 -8.595388 -11.837946 -70.104318 -2.479567 -0.076840 28.700898 4.451129 13.807959 -18.522185 -1.712900 -0.000000 -38.760100 8.422441 0.819550 5.680332 -0.484396 10.670298 -73.574170 1.488564 -0.994311 32.503042 -4.230124 -10.261884 -19.054264 0.946800 -0.000001 -52.952700
16.018939 16.128168 1.380699 132.062356 -86.967822 -74.582815 -8.003116 -0.320389 4.073424 -8.501450 -12.525756 -73.152397 -2.406381 0.336883 32.183748 4.605094 13.727545 -19.958092 -2.082400 0.000000 -38.532899 8.487547 0.950660 5.841683 -0.980508 10.634136 -76.666337 1.356536 -1.448411 36.154344 -4.359931 -10.230550 -20.572699 1.278600 -0.000000 -52.419800
15.989706 15.970684 1.378355 128.137592 -86.894081 -69.559592 -7.952775 -0.265493 4.273099 -8.356564 -13.222302 -76.231043 -2.297563 0.769115 35.773593 4.757429 13.681012 -21.381996 -2.454300 -0.000000 -38.321800 8.550700 1.091038 5.998306 -1.460090 10.547564 -79.746868 1.213794 -1.913121 39.860881 -4.479312 -10.207490 -22.073957 1.611400 0.000000 -52.022100
15.959552 15.802645 1.377212 124.202830 -86.808696 -64.559690 -7.923055 -0.231717 4.472858 -8.156574 -13.914917 -79.309019 -2.152043 1.211439 39.441017 4.907117 13.675955 -22.784578 -2.828900 -0.000000 -38.145400 8.610395 1.237296 6.147405 -1.909754 10.416249 -82.787939 1.059895 -2.384122 43.594237 -4.587486 -10.196197 -23.542208 1.942200 -0.000000 -51.772400
15.928390 15.624993 1.377234 120.320187 -86.714560 -59.656126 -7.911134 -0.223953 4.667343 -7.901999 -14.590707 -82.355378 -1.971136 1.655667 43.155393 5.053004 13.716358 -24.159566 -3.207300 -0.000000 -38.019700 8.666186 1.386218 6.286080 -2.316131 10.247440 -85.763542 0.894281 -2.857486 47.328430 -4.684239 -10.199112 -24.966138 2.268901 -0.000000 -51.672301
15.882900 15.424002 1.401173 102.677877 -86.861249 -40.666765 -7.958015 -0.237558 5.225656 -6.686694 -15.807605 -86.157591 -1.620669 2.015393 46.911662 5.211636 13.849603 -25.245247 -3.488701 -0.000000 -38.365900 8.705189 1.437382 6.463563 -2.104805 9.810194 -89.050925 0.831637 -3.402040 50.984507 -4.826368 -10.281203 -26.467939 2.629300 -0.000000 -51.487300
15.849742 15.230051 1.403302 99.493486 -86.713789 -36.571300 -7.961572 -0.281036 5.395654 -6.339125 -16.395231 -89.055568 -1.384997 2.437095 50.613736 5.345746 13.974622 -26.555176 -3.876900 -0.000000 -38.382600 8.764836 1.589419 6.576678 -2.403398 9.599528 -91.839584 0.634086 -3.879227 54.667421 -4.901199 -10.311242 -27.788729 2.948400 -0.000000 -51.654200
15.815741 15.030127 1.406420 96.425489 -86.577716 -32.659669 -7.968891 -0.349090 5.549064 -5.954665 -16.935468 -91.844410 -1.126300 2.844520 54.282231 5.473040 14.138012 -27.838981 -4.273500 -0.000000 -38.448100 8.824320 1.741538 6.671572 -2.628903 9.375480 -94.499722 0.423454 -4.348898 58.286981 -4.966473 -10.354594 -29.061142 3.263200 0.000000 -51.916300
15.780239 14.825561 1.410355 93.426769 -86.452423 -28.886195 -7.977762 -0.436470 5.688995 -5.541592 -17.428882 -94.504365 -0.849248 3.233581 57.887160 5.593294 14.335006 -29.096519 -4.678500 0.000000 -38.601400 8.884748 1.893350 6.749647 -2.782359 9.142223 -97.018924 0.198840 -4.808504 61.829576 -5.023817 -10.410411 -30.289716 3.574600 0.000001 -52.268900
15.743451 14.618092 1.415038 90.520338 -86.341416 -25.281890 -7.986125 -0.539786 5.812590 -5.111297 -17.870124 -97.019089 -0.558249 3.603744 61.413351 5.705564 14.556981 -30.334068 -5.092900 -0.000000 -38.793000 8.945622 2.045423 6.807916 -2.861103 8.905601 -99.381787 -0.038369 -5.256257 65.279268 -5.073523 -10.470089 -31.485243 3.883500 0.000000 -52.669800
15.704844 14.409232 1.420301 87.712467 -86.243384 -21.852349 -7.993396 -0.654006 5.921332 -4.674723 -18.261465 -99.374056 -0.257333 3.953792 64.842405 5.809560 14.796366 -31.554969 -5.516200 -0.000000 -39.010800 9.007179 2.198098 6.846767 -2.869979 8.667114 -101.577491 -0.287306 -5.690222 68.624001 -5.116043 -10.525836 -32.656899 4.189800 0.000000 -53.095300
15.663824 14.200516 1.426113 84.973554 -86.156005 -18.567453 -7.999968 -0.773531 6.022426 -4.235533 -18.610702 -101.567553 0.050929 4.282647 68.158440 5.905867 15.048134 -32.757503 -5.946400 -0.000000 -39.291200 9.069568 2.350306 6.871775 -2.818190 8.428737 -103.606314 -0.547644 -6.108621 71.854969 -5.152609 -10.573308 -33.808898 4.492300 -0.000000 -53.565300
15.620200 13.993692 1.432220 82.384653 -86.076822 -15.509222 -8.006281 -0.895727 6.113765 -3.808676 -18.919685 -103.585323 0.362981 4.590808 71.351772 5.994165 15.305397 -33.944536 -6.382600 0.000000 -39.576800 9.132232 2.502277 6.881671 -2.713543 8.189135 -105.455672 -0.817068 -6.509422 74.960196 -5.182429 -10.601231 -34.947587 4.788100 0.000000 -54.041000
15.573760 13.790442 1.438484 79.984400 -86.002155 -12.714703 -8.013413 -1.017633 6.198851 -3.402523 -19.195652 -105.422908 0.676349 4.878018 74.411460 6.075216 15.565745 -35.111945 -6.822300 -0.000000 -39.867900 9.195070 2.652273 6.880728 -2.568174 7.947428 -107.124956 -1.093898 -6.890509 77.930133 -5.205473 -10.603025 -36.071226 5.073100 -0.000000 -54.524400
15.523815 13.592121 1.444959 77.741021 -85.932829 -10.146683 -8.023052 -1.136666 6.284937 -3.014382 -19.444067 -107.089204 0.990260 5.144072 77.331625 6.150074 15.829939 -36.249256 -7.261700 -0.000001 -40.205499 9.257955 2.797387 6.876148 -2.391873 7.708250 -108.620911 -1.376846 -7.249689 80.757969 -5.222622 -10.578985 -37.169017 5.342601 -0.000000 -55.063400
15.470525 13.400453 1.451194 75.774088 -85.862247 -7.923510 -8.035502 -1.252758 6.369591 -2.661223 -19.671270 -108.572238 1.301451 5.389094 80.102743 6.219587 16.099425 -37.349053 -7.699200 -0.000000 -40.555800 9.321251 2.935852 6.869282 -2.200183 7.467221 -109.940404 -1.663856 -7.584475 83.435319 -5.233000 -10.525798 -38.230886 5.590900 0.000000 -55.634800
15.413542 13.216827 1.457132 74.071290 -85.790873 -6.028965 -8.051530 -1.365145 6.456643 -2.343464 -19.881097 -109.878623 1.608823 5.612966 82.719239 6.284984 16.379085 -38.396561 -8.131599 -0.000000 -40.942600 9.385189 3.064605 6.865857 -2.003816 7.228601 -111.091600 -1.953439 -7.892629 85.956758 -5.237182 -10.449326 -39.237768 5.814000 -0.000000 -56.266300
15.352994 13.042434 1.462514 72.652538 -85.717340 -4.476107 -8.071366 -1.473669 6.547224 -2.065062 -20.076956 -111.011194 1.910662 5.815459 85.175026 6.347448 16.674926 -39.377167 -8.556600 -0.000000 -41.380900 9.450393 3.181247 6.869998 -1.814853 6.995487 -112.082246 -2.244294 -8.171857 88.318403 -5.235636 -10.358882 -40.168869 6.009100 -0.000000 -56.974200
15.289318 12.878410 1.467169 71.502411 -85.643009 -3.245450 -8.095034 -1.578201 6.642179 -1.826598 -20.259632 -111.975317 2.205425 5.996393 87.464761 6.407741 16.992289 -40.275722 -8.971700 -0.000001 -41.882700 9.516959 3.283851 6.884954 -1.642088 6.773392 -112.921113 -2.535006 -8.420286 90.517590 -5.229153 -10.267404 -41.003233 6.176100 -0.000000 -57.766700
15.222917 12.725828 1.470917 70.596600 -85.568451 -2.310533 -8.122324 -1.678731 6.741285 -1.628179 -20.428750 -112.775324 2.491257 6.155621 89.583432 6.466363 17.335453 -41.079624 -9.374900 -0.000000 -42.456399 9.584710 3.371304 6.912477 -1.492609 6.567480 -113.615834 -2.824238 -8.636418 92.553912 -5.218728 -10.190096 -41.723120 6.317600 -0.000001 -58.642600
15.154230 12.585286 1.473642 69.895373 -85.496035 -1.625330 -8.153297 -1.775008 6.843951 -1.467144 -20.582271 -113.417040 2.766101 6.292863 91.527007 6.523297 17.705666 -41.779551 -9.763700 -0.000000 -43.103800 9.653131 3.443276 6.952972 -1.370204 6.384022 -114.173863 -3.110274 -8.819296 94.428407 -5.205609 -10.142155 -42.316256 6.438400 -0.000000 -59.592399
15.084034 12.457543 1.475315 69.344264 -85.427688 -1.135514 -8.187688 -1.866949 6.948199 -1.340242 -20.717486 -113.904722 3.027687 6.408092 93.293409 6.577979 18.100629 -42.371527 -10.135600 -0.000000 -43.819300 9.721082 3.500674 7.004492 -1.275689 6.227672 -114.599796 -3.391095 -8.968826 96.143642 -5.191111 -10.136880 -42.777557 6.544600 0.000000 -60.599700
15.012749 12.343074 1.475852 68.891465 -85.363897 -0.790155 -8.225755 -1.954565 7.052763 -1.244474 -20.831216 -114.238222 3.272941 6.501266 94.880314 6.629465 18.513470 -42.858502 -10.487800 0.000000 -44.584300 9.787579 3.543677 7.064661 -1.205981 6.101980 -114.892115 -3.663841 -9.085040 97.702096 -5.176902 -10.183997 -43.112263 6.643300 0.000000 -61.629500
14.941459 12.242170 1.475325 68.480465 -85.306444 -0.533978 -8.267100 -2.037833 7.153919 -1.175750 -20.920846 -114.419720 3.499164 6.572668 96.289885 6.676598 18.934970 -43.249244 -10.818201 0.000000 -45.378100 9.851336 3.574838 7.127815 -1.156017 6.007855 -115.050250 -3.925334 -9.169679 99.108434 -5.164296 -10.287058 -43.333340 6.740199 0.000000 -62.656700
14.870437 12.155043 1.473777 68.066353 -85.254157 -0.326362 -8.311846 -2.116805 7.249179 -1.132527 -20.984676 -114.444608 3.702978 6.622728 97.524224 6.717999 19.352167 -43.559030 -11.124699 0.000000 -46.170400 9.911702 3.595221 7.188837 -1.117786 5.943795 -115.066333 -4.171374 -9.224442 100.365585 -5.154708 -10.443869 -43.463592 6.840100 0.000000 -63.643100
